<svg xmlns="http://www.w3.org/2000/svg" viewBox="0 0 67.19 66.46"><path d="M57.83 31.8l-.03.31c-5.34.01-12.68.16-18.02-.37-6.71-.69-12.04-3.37-16.02-6.39-5.7 3-11.72 6.65-23.38 6.65l-.01 2.34c11.68 0 17.68 3.71 23.33 6.68 4.04-2.97 9.39-5.64 16.08-6.27 5.31-.51 12.68-.3 18.01-.29v.34c-15.34 4.63-25.74 11.94-33.11 19.96 2.34 2.34 7.65 7.68 10.67 11.03 11.09-22.35 24.77-27 31.46-29.29v-6.38C60.17 27.76 46.48 23.07 35.49.65c-3.02 3.32-8.35 8.68-10.73 11.02 7.36 8.01 17.7 15.39 33.07 20.13z" clip-rule="evenodd" fill="none" stroke="#ab4024" stroke-width=".75" stroke-miterlimit="10"/></svg>
