<svg version="1.1" id="Layer_1" xmlns="http://www.w3.org/2000/svg" x="0" y="0" viewBox="0 0 54.1 35.8" xml:space="preserve"><style>.st1{fill:#231f20}</style><path d="M33.8 11.7c-1.6-1-3.7 0-5.2.8-3.3 2-7.4 5.3-11 9-.2.2-.5.3-.9.2a.8.8 0 01-.5-.7L13 2.3 8.4 5.7h-.1L2 9C4.7 14 9.8 19.2 12.7 22l1.8 2c3.6 4.1 11.6 5.4 17 2.6 3-1.6 4.5-5.7 4.6-9 0-2.8-.8-5.1-2.3-6" fill="#57b6dd"/><path class="st1" d="M32 16.9a2 2 0 002.2-2c0-1.2-.9-2.2-2-2.2-1.2 0-2.2.9-2.2 2 0 1.2.9 2.1 2 2.2"/><path class="st1" d="M26.2 30v-.2l1.3-.1 3 5.6h1.8l-3-6c1-.3 2-.6 3-1.1 3.6-2 5.4-6.7 5.5-10.5 0-1.5-.2-2.9-.6-4l2.8-2.2.1-.3V11c0-.2-.3-.3-.4-.2l-3.7.6 1-3.6h.1c0-.2 0-.4-.2-.5a.4.4 0 00-.5.1L34 10c-1.4-.5-3.4-.6-6.3 1.1a57 57 0 00-10.2 8.1L14.5.7a.8.8 0 00-1.3-.5L7.5 4.3.5 8A.8.8 0 00.2 9a63.8 63.8 0 0011.3 14.3l1.7 1.8c2.5 3 6.9 4.6 11.3 4.7L23 35.3h1.7l1.4-5.4zm-11.7-6l-1.8-1.8C9.9 19.2 4.7 13.9 2 9l6.2-3.2L13 2.2 16.2 21c0 .3.2.6.5.7.3 0 .7 0 1-.2 3.5-3.7 7.6-7 11-9 1.4-.9 3.5-1.7 5.1-.8 1.5.9 2.4 3.2 2.3 6-.1 3.3-1.6 7.4-4.6 9-5.4 2.8-13.4 1.6-17-2.6"/><path d="M33.4 14.9c0 .6-.5 1.1-1.1 1.1a1.2 1.2 0 111.1-1.1" fill="#e3e2d8"/><path fill="none" stroke="#2a211f" stroke-linecap="round" stroke-miterlimit="10" d="M.5 35.3h53.1"/></svg>
