<svg version="1.1" id="Layer_1" xmlns="http://www.w3.org/2000/svg" x="0" y="0" viewBox="0 0 60.59 38.38" xml:space="preserve"><style>.st0{fill:#68874d;stroke:#1e3f04;stroke-linejoin:round;stroke-miterlimit:10}</style><path class="st0" d="M16.08 7.46c-.03.06-.05.13-.05.19V9c0 .22.18.41.41.41h3.79c.22 0 .41-.18.41-.41V3.41c0-.37.3-.68.68-.68h17.93c.37 0 .68.3.68.68v5.61c0 .22.18.41.41.41h3.79c.22 0 .41-.18.41-.41V7.66a.408.408 0 00-.41-.4h-1.6a.68.68 0 01-.68-.68V1.89c0-.66-.67-1.33-1.33-1.33H20.04c-.66 0-1.33.67-1.33 1.33v4.68c0 .37-.3.68-.68.68h-1.59c-.15 0-.29.08-.36.21m0 0c-.03.06-.05.13-.05.19V9c0 .22.18.41.41.41h3.79c.22 0 .41-.18.41-.41V3.41c0-.37.3-.68.68-.68h17.93c.37 0 .68.3.68.68v5.61c0 .22.18.41.41.41h3.79c.22 0 .41-.18.41-.41V7.66a.408.408 0 00-.41-.4h-1.6a.68.68 0 01-.68-.68V1.89c0-.66-.67-1.33-1.33-1.33H20.04c-.66 0-1.33.67-1.33 1.33v4.68c0 .37-.3.68-.68.68h-1.59c-.15 0-.29.08-.36.21m17.54 14.79c0 .72-.59.86-1.31.86h-4.07c-.72 0-1.31-.14-1.31-.86v-.18H.5v15.82h59.59V22.07H33.62v.18zM52.55 5H8.04L.5 13.45v7.12h26.44v.1c0-.72.59-.86 1.31-.86h4.07c.72 0 1.31.14 1.31.86v-.1h26.48v-7.12L52.55 5z"/><path fill="#7fa556" stroke="#1e3f04" stroke-linejoin="round" stroke-miterlimit="10" d="M52.55 5l7.46 8.36H.58L8.04 5z"/><path class="st0" d="M16.08 7.4c-.03.06-.05.13-.05.19v1.35c0 .22.18.41.41.41h3.79c.22 0 .41-.18.41-.41v-5.6c0-.37.3-.68.68-.68h17.93c.37 0 .68.3.68.68v5.61c0 .22.18.41.41.41h3.79c.22 0 .41-.18.41-.41V7.6a.408.408 0 00-.41-.4h-1.6a.68.68 0 01-.68-.68V1.83c0-.66-.67-1.33-1.33-1.33H20.04c-.66 0-1.33.67-1.33 1.33v4.68c0 .37-.3.68-.68.68h-1.59c-.15 0-.29.08-.36.21"/></svg>
