<svg version="1.1" id="Layer_1" xmlns="http://www.w3.org/2000/svg" x="0" y="0" viewBox="0 0 61 57.65" xml:space="preserve"><style>.st0{fill:#d2c3aa}.st2{fill:#f1f2f2}.st3{fill:none;stroke:#231f20;stroke-linejoin:round}.st4{fill:#9b8579}</style><path class="st0" d="M5.25 22.02h50.51v33.36H5.25z"/><path fill="none" stroke="#231f20" stroke-width=".711" d="M5.25 22.02h50.51v33.36H5.25z"/><path class="st2" d="M3.61 23.71h5.4V51.5h-5.4z"/><path class="st3" d="M3.61 23.71h5.4V51.5h-5.4z"/><path class="st4" d="M58.35 20.63H2.65L30.54.5z"/><path class="st3" d="M58.35 20.63H2.65L30.54.5z"/><path class="st4" d="M12.55 30.41h10.43v22.17H12.55z"/><path class="st3" d="M12.55 30.41h10.43v22.17H12.55z"/><path class="st4" d="M37.93 30.41h10.44v22.17H37.93z"/><path class="st3" d="M37.93 30.41h10.44v22.17H37.93z"/><path class="st0" d="M26.67 10.01a3.83 3.83 0 013.83-3.83c2.11 0 3.83 1.72 3.83 3.83a3.83 3.83 0 01-3.83 3.83c-2.11 0-3.83-1.72-3.83-3.83"/><path d="M26.67 10.01a3.83 3.83 0 013.83-3.83c2.11 0 3.83 1.72 3.83 3.83a3.83 3.83 0 01-3.83 3.83c-2.11 0-3.83-1.72-3.83-3.83z" fill="none" stroke="#231f20"/><path class="st2" d="M2.84 50.08h6.92v2.44H2.84z"/><path class="st3" d="M2.84 50.08h6.92v2.44H2.84z"/><path class="st2" d="M2.85 22.19h6.92v2.43H2.85z"/><path class="st3" d="M2.85 22.19h6.92v2.43H2.85z"/><path class="st2" d="M27.8 23.71h5.4V51.5h-5.4z"/><path class="st3" d="M27.8 23.71h5.4V51.5h-5.4z"/><path class="st2" d="M27.04 50.08h6.92v2.43h-6.92z"/><path class="st3" d="M27.04 50.08h6.92v2.43h-6.92z"/><path class="st2" d="M27.04 22.19h6.92v2.43h-6.92z"/><path class="st3" d="M27.04 22.19h6.92v2.43h-6.92z"/><path class="st2" d="M51.96 23.71h5.4V51.5h-5.4z"/><path class="st3" d="M51.96 23.71h5.4V51.5h-5.4z"/><path class="st2" d="M51.2 50.08h6.92v2.43H51.2z"/><path class="st3" d="M51.2 50.08h6.92v2.43H51.2z"/><path class="st2" d="M51.2 22.19h6.92v2.43H51.2z"/><path class="st3" d="M51.2 22.19h6.92v2.43H51.2z"/><path class="st2" d="M1.93 20.6h57.14v1.74H1.93z"/><path class="st3" d="M1.93 20.6h57.14v1.74H1.93z"/><path class="st2" d="M1.35 52.62h58.31v3.2H1.35z"/><path class="st3" d="M1.35 52.62h58.31v3.2H1.35z"/><path class="st2" d="M.5 53.94h60v3.21H.5z"/><path class="st3" d="M.5 53.94h60v3.21H.5z"/></svg>
