<svg version="1.1" id="Layer_1" xmlns="http://www.w3.org/2000/svg" x="0" y="0" viewBox="0 0 19.1 19.2" xml:space="preserve"><style>.st0{fill-rule:evenodd;clip-rule:evenodd;fill:#54737f}</style><path class="st0" d="M19 9.6v4.2c-.1 2.1-1 3.9-3 4.8a7 7 0 01-2.5.6H5.6C2.4 19.2.2 17 .1 13.8V5.4A5.3 5.3 0 015.5 0h8.1C16.8 0 19 2.3 19 5.4v4.2zm-17.2 0V14c.2 2.1 1.4 3.4 3.5 3.5h8.6c2-.1 3.3-1.4 3.3-3.4V5.2c0-2-1.3-3.3-3.2-3.3H5.2c-2 0-3.2 1.3-3.3 3.3v4.4z"/><path class="st0" d="M14.4 9.6a5 5 0 01-4.8 5 5 5 0 010-10 5 5 0 014.8 5zM9.5 6.4a3.2 3.2 0 00-3.1 3.3c0 1.7 1.5 3.1 3.2 3.1 1.7 0 3.2-1.5 3.1-3.2 0-1.8-1.4-3.2-3.2-3.2zM14.6 5.6c-.6 0-1.1-.5-1.1-1.1 0-.7.6-1.2 1.2-1.2s1.1.6 1.1 1.2-.6 1.1-1.2 1.1z"/></svg>
