<svg xmlns="http://www.w3.org/2000/svg" viewBox="0 0 18.36 18.3"><path fill="#54737f" d="M16.23 0H2.13C.95 0 0 .94 0 2.11V16.2c0 1.16.95 2.1 2.13 2.1h14.1c1.17 0 2.13-.94 2.13-2.1V2.11C18.36.94 17.4 0 16.23 0zM5.96 15.07H3.35V6.78c0-.02 0-.06.02-.06h2.59v8.35zm-.5-9.68a1.53 1.53 0 0 1-2.32-1.3c0-.79.61-1.45 1.43-1.49.83-.05 1.51.54 1.59 1.32.07.67-.3 1.23-.7 1.47zm10.21 9.68h-2.62v-2.8c0-1.35.18-2.86-.66-3.32-.74-.41-1.68-.01-1.95.53-.35.64-.26 1.63-.26 2.68v2.91H7.56V6.72h2.5v1.13a2.86 2.86 0 0 1 2.31-1.33c1.07-.07 1.93.24 2.44.77 1.41 1.48.64 5.11.86 7.78z"/></svg>
