<svg version="1.1" id="Layer_1" xmlns="http://www.w3.org/2000/svg" x="0" y="0" viewBox="0 0 60.19 36.89" xml:space="preserve"><style>.st2{fill:#caede6;stroke:#54737f;stroke-width:2;stroke-linecap:round;stroke-linejoin:round;stroke-miterlimit:10}</style><path d="M11.35 12.11V1h47.84v30.4c0 2.47-2.02 4.5-4.49 4.5H11.35V12.11" fill="#caede6"/><path class="st2" d="M11.35 12.11V1h47.84v30.4c0 2.47-2.02 4.5-4.49 4.5H11.35v-3.3"/><path d="M35.27 27.32c-2.17 0-3.92-1.52-3.92-1.52L12.77 3.88V2.42h44.99v1.19l-19.1 22.21c-1.13 1.12-2.31 1.5-3.39 1.5" fill="#add2cc"/><path fill="#caede6" stroke="#54737f" stroke-width="2" stroke-linejoin="round" stroke-miterlimit="10" d="M59.19 1L35.27 20.71 11.35 1h47.84z"/><path class="st2" d="M5.67 12.11h7.3M11.35 18.38v5.42M1 18.38h18.06M6.39 28.44h18.06"/></svg>
